<svg width="120" height="100" viewBox="0 0 120 100" fill="none" xmlns="http://www.w3.org/2000/svg">
<path d="M91.4555 68.0881C89.0666 66.9576 85.9653 67.726 84.6411 70.0132C77.723 81.9619 64.8002 90 50 90C27.9086 90 10 72.0914 10 50C10 27.9086 27.9086 10 50 10C64.8002 10 77.723 18.0381 84.6411 29.9868C85.9653 32.274 89.0666 33.0424 91.4555 31.9119C93.679 30.8597 95.1111 28.2697 93.9341 26.1097C85.4578 10.5548 68.9615 0 50 0C22.3858 0 0 22.3858 0 50C0 77.6142 22.3858 100 50 100C68.9615 100 85.4578 89.4452 93.9341 73.8903C95.1111 71.7303 93.679 69.1403 91.4555 68.0881Z" fill="url(#paint0_linear_4_2193)"/>
<mask id="mask0_4_2193" style="mask-type:alpha" maskUnits="userSpaceOnUse" x="82" y="31" width="38" height="38">
<rect x="82" y="31" width="38" height="38" fill="url(#paint1_linear_4_2193)"/>
</mask>
<g mask="url(#mask0_4_2193)">
<path d="M101.768 53.9572C102.192 54.1662 102.393 54.1304 102.706 53.769C103.861 52.3946 105.012 51.0184 106.192 49.6517C106.609 49.1348 107.143 48.7262 107.75 48.4604C108.357 48.1947 109.019 48.0796 109.68 48.1249L111.891 48.2322L116.457 48.4543L118.357 48.5428L118.372 48.492L118.23 48.4223L113.02 46.1123C107.79 43.7879 102.56 41.466 97.3292 39.1466C96.3978 38.7001 95.4248 38.347 94.4244 38.0924C93.4742 37.9065 92.5098 37.8039 91.542 37.7855C89.361 37.682 87.1819 37.569 85.0009 37.4636C84.6915 37.4529 84.3817 37.4667 84.0745 37.505C83.8346 37.5194 83.6071 37.617 83.4309 37.7812C83.2547 37.9453 83.1408 38.1658 83.1087 38.4049C82.9211 39.286 82.7336 40.1651 82.5461 41.0406C82.3754 41.8143 82.2104 42.5749 82.0472 43.3374C81.916 43.9586 82.0472 44.2504 82.5798 44.5102L86.5011 46.4324L101.768 53.9572Z" fill="url(#paint2_linear_4_2193)"/>
<path d="M101.344 58.1499C101.367 57.3479 101.344 56.5892 101.419 55.838C101.46 55.3806 101.293 55.1772 100.902 54.9852C96.5958 52.8767 92.2957 50.7556 88.0012 48.6219C87.9205 48.5824 87.8362 48.5466 87.6768 48.4751C87.7199 49.2696 87.7536 50 87.8024 50.7342C87.8128 50.8697 87.8594 50.9998 87.9374 51.1108C88.0454 51.284 88.1901 51.4312 88.3612 51.5419C91.9569 53.3781 95.5575 55.2117 99.1631 57.0429L101.344 58.1499Z" fill="url(#paint3_linear_4_2193)"/>
<path d="M119.991 49.3128C119.949 49.2205 119.747 49.1622 119.615 49.1546C118.674 49.0956 117.732 49.0479 116.789 49.0115C116.292 48.9927 115.795 49.0115 115.27 49.0115C115.27 49.0454 115.259 49.1 115.257 49.1546C115.18 50.4725 115.098 51.7903 115.032 53.1081C115.024 53.4909 114.922 53.8658 114.736 54.2C114.601 54.4297 114.486 54.6726 114.361 54.9041C114.833 55.2807 115.167 55.2618 115.537 54.8232L115.734 54.5954C117.109 52.9638 118.484 51.3359 119.859 49.7119C119.938 49.597 120.03 49.4069 119.991 49.3128Z" fill="url(#paint4_linear_4_2193)"/>
<path d="M93.3913 58.7182H99.4092C99.4878 58.7182 99.5631 58.6869 99.6187 58.6311C99.6743 58.5753 99.7055 58.4996 99.7055 58.4208C99.7055 58.3247 99.7055 58.2325 99.7055 58.1365C99.7157 58.0706 99.7025 58.0032 99.6682 57.946C99.634 57.8889 99.5808 57.8457 99.5179 57.824C98.9966 57.5717 98.4846 57.3006 97.9689 57.037L96.3599 56.22C95.5948 57.4832 94.6552 58.2909 93.0894 57.583V58.4226C93.0893 58.4621 93.0972 58.5012 93.1125 58.5375C93.1277 58.5739 93.1501 58.6068 93.1782 58.6343C93.2064 58.6619 93.2397 58.6835 93.2763 58.6979C93.3129 58.7123 93.352 58.7192 93.3913 58.7182Z" fill="url(#paint5_linear_4_2193)"/>
<path d="M86.9677 48.1077C85.8987 47.5693 84.8317 47.0196 83.7646 46.4755C83.5002 46.3418 83.2433 46.2138 82.9376 46.0594C82.9376 46.5527 82.9264 47.0008 82.9376 47.4413C82.938 47.5852 82.9803 47.7258 83.0592 47.8459C83.1382 47.966 83.2504 48.0603 83.3821 48.1172C84.1866 48.5294 84.978 48.9719 85.775 49.3992L87.1627 50.141C87.1627 49.5461 87.1627 48.9907 87.1627 48.4353C87.1711 48.3667 87.1565 48.2972 87.1212 48.2379C87.0859 48.1786 87.0319 48.1328 86.9677 48.1077Z" fill="url(#paint6_linear_4_2193)"/>
<path d="M94.64 57.2105C95.2194 56.9846 95.5776 56.5233 95.8627 55.9604L91.8701 53.9253C91.8926 54.1286 91.9039 54.2849 91.9283 54.4411C92.0633 55.3071 92.3314 56.1185 92.9559 56.7605C93.421 57.2406 93.9799 57.4665 94.64 57.2105Z" fill="url(#paint7_linear_4_2193)"/>
<path d="M114.691 49.501C114.702 49.3128 114.691 49.1245 114.691 48.9061C112.881 48.8233 111.09 48.7066 109.3 48.6727C108.187 48.6501 107.278 49.1848 106.575 50.0282C105.275 51.5851 104.002 53.1646 102.71 54.7347C102.549 54.9201 102.359 55.0778 102.147 55.2016C102.088 55.2281 102.039 55.2718 102.006 55.3269C101.972 55.382 101.956 55.4459 101.96 55.5104C101.946 56.3067 101.924 57.1031 101.901 57.8994C101.886 58.4642 102.031 58.6412 102.593 58.7052C102.665 58.7052 102.736 58.7202 102.807 58.724C105.315 58.7974 107.82 58.8614 110.325 58.9518C111.04 58.9782 111.546 58.7146 111.893 58.0952C112.713 56.6381 113.543 55.1884 114.363 53.7332C114.42 53.6295 114.454 53.5144 114.462 53.3962C114.542 52.0959 114.619 50.7975 114.691 49.501ZM111.655 51.7018C111.445 52.4925 111.201 53.2757 110.97 54.0626L110.595 55.324C110.449 55.8285 110.247 55.9942 109.718 55.9773C108.358 55.9346 106.995 55.8831 105.63 55.8229C105.097 55.7984 104.928 55.5706 105.067 55.0491C105.391 53.8763 105.733 52.7071 106.082 51.5399C106.207 51.1182 106.511 50.9205 106.985 50.9055C108.169 50.8716 110.451 51.0109 111.149 51.0486C111.608 51.0711 111.771 51.2594 111.655 51.7018Z" fill="url(#paint8_linear_4_2193)"/>
<path d="M102.467 59.3413H90.3416C89.975 59.3413 89.6777 59.6397 89.6777 60.0078V60.0096C89.6777 60.3777 89.975 60.6761 90.3416 60.6761H102.467C102.834 60.6761 103.131 60.3777 103.131 60.0096V60.0078C103.131 59.6397 102.834 59.3413 102.467 59.3413Z" fill="url(#paint9_linear_4_2193)"/>
<path d="M98.543 61.207H94.2654C94.0894 61.207 93.9205 61.2772 93.796 61.4022C93.6715 61.5272 93.6016 61.6967 93.6016 61.8735C93.6016 62.0502 93.6715 62.2197 93.796 62.3447C93.9205 62.4697 94.0894 62.5399 94.2654 62.5399H98.543C98.7191 62.5399 98.888 62.4697 99.0124 62.3447C99.1369 62.2197 99.2069 62.0502 99.2069 61.8735C99.2069 61.6967 99.1369 61.5272 99.0124 61.4022C98.888 61.2772 98.7191 61.207 98.543 61.207Z" fill="url(#paint10_linear_4_2193)"/>
</g>
<defs>
<linearGradient id="paint0_linear_4_2193" x1="23.1959" y1="62.9167" x2="89.9166" y2="26.2882" gradientUnits="userSpaceOnUse">
<stop stop-color="#0E7FD4"/>
<stop offset="1" stop-color="#00B3BF"/>
</linearGradient>
<linearGradient id="paint1_linear_4_2193" x1="91.3417" y1="54.9083" x2="117.467" y2="39.7083" gradientUnits="userSpaceOnUse">
<stop stop-color="#0E7FD4"/>
<stop offset="1" stop-color="#00B3BF"/>
</linearGradient>
<linearGradient id="paint2_linear_4_2193" x1="90.9415" y1="47.9201" x2="103.715" y2="31.6604" gradientUnits="userSpaceOnUse">
<stop stop-color="#0E7FD4"/>
<stop offset="1" stop-color="#00B3BF"/>
</linearGradient>
<linearGradient id="paint3_linear_4_2193" x1="91.0566" y1="54.5622" x2="98.5713" y2="48.349" gradientUnits="userSpaceOnUse">
<stop stop-color="#0E7FD4"/>
<stop offset="1" stop-color="#00B3BF"/>
</linearGradient>
<linearGradient id="paint4_linear_4_2193" x1="115.747" y1="52.8835" x2="119.792" y2="50.7318" gradientUnits="userSpaceOnUse">
<stop stop-color="#0E7FD4"/>
<stop offset="1" stop-color="#00B3BF"/>
</linearGradient>
<linearGradient id="paint5_linear_4_2193" x1="94.7166" y1="57.7918" x2="96.5208" y2="55.0107" gradientUnits="userSpaceOnUse">
<stop stop-color="#0E7FD4"/>
<stop offset="1" stop-color="#00B3BF"/>
</linearGradient>
<linearGradient id="paint6_linear_4_2193" x1="83.9731" y1="48.6274" x2="86.8285" y2="46.9047" gradientUnits="userSpaceOnUse">
<stop stop-color="#0E7FD4"/>
<stop offset="1" stop-color="#00B3BF"/>
</linearGradient>
<linearGradient id="paint7_linear_4_2193" x1="92.8516" y1="56.0594" x2="95.3527" y2="54.3466" gradientUnits="userSpaceOnUse">
<stop stop-color="#0E7FD4"/>
<stop offset="1" stop-color="#00B3BF"/>
</linearGradient>
<linearGradient id="paint8_linear_4_2193" x1="105.046" y1="55.1408" x2="112.771" y2="49.5474" gradientUnits="userSpaceOnUse">
<stop stop-color="#0E7FD4"/>
<stop offset="1" stop-color="#00B3BF"/>
</linearGradient>
<linearGradient id="paint9_linear_4_2193" x1="92.9851" y1="60.1811" x2="93.3349" y2="58.1296" gradientUnits="userSpaceOnUse">
<stop stop-color="#0E7FD4"/>
<stop offset="1" stop-color="#00B3BF"/>
</linearGradient>
<linearGradient id="paint10_linear_4_2193" x1="94.9795" y1="62.0456" x2="95.7178" y2="60.2392" gradientUnits="userSpaceOnUse">
<stop stop-color="#0E7FD4"/>
<stop offset="1" stop-color="#00B3BF"/>
</linearGradient>
</defs>
</svg>
