<svg xmlns="http://www.w3.org/2000/svg" width="156" height="156" viewBox="0 0 156 156" fill="none">
  <g filter="url(#filter0_b_4_2193)">
    <circle cx="78" cy="78" r="78" fill="#F9F9F9"/>
  </g>
  <path d="M119.455 96.0881C117.067 94.9576 113.965 95.726 112.641 98.0132C105.723 109.962 92.8002 118 78 118C55.9086 118 38 100.091 38 78C38 55.9086 55.9086 38 78 38C92.8002 38 105.723 46.0381 112.641 57.9868C113.965 60.274 117.067 61.0424 119.455 59.9119C121.679 58.8597 123.111 56.2697 121.934 54.1097C113.458 38.5548 96.9615 28 78 28C50.3858 28 28 50.3858 28 78C28 105.614 50.3858 128 78 128C96.9615 128 113.458 117.445 121.934 101.89C123.111 99.7303 121.679 97.1403 119.455 96.0881Z" fill="url(#paint0_linear_4_2193)"/>
  <mask id="mask0_4_2193" style="mask-type:alpha" maskUnits="userSpaceOnUse" x="110" y="59" width="38" height="38">
    <rect x="110" y="59" width="38" height="38" fill="url(#paint1_linear_4_2193)"/>
  </mask>
  <g mask="url(#mask0_4_2193)">
    <path d="M129.768 81.9572C130.192 82.1662 130.393 82.1304 130.706 81.769C131.861 80.3946 133.012 79.0184 134.192 77.6517C134.609 77.1348 135.143 76.7262 135.75 76.4604C136.357 76.1947 137.019 76.0796 137.68 76.1249L139.891 76.2322L144.457 76.4543L146.357 76.5428L146.372 76.492L146.23 76.4223L141.02 74.1123C135.79 71.7879 130.56 69.466 125.329 67.1466C124.398 66.7001 123.425 66.347 122.424 66.0924C121.474 65.9065 120.51 65.8039 119.542 65.7855C117.361 65.682 115.182 65.569 113.001 65.4636C112.691 65.4529 112.382 65.4667 112.074 65.505C111.835 65.5194 111.607 65.617 111.431 65.7812C111.255 65.9453 111.141 66.1658 111.109 66.4049C110.921 67.286 110.734 68.1651 110.546 69.0406C110.375 69.8143 110.21 70.5749 110.047 71.3374C109.916 71.9586 110.047 72.2504 110.58 72.5102L114.501 74.4324L129.768 81.9572Z" fill="url(#paint2_linear_4_2193)"/>
    <path d="M129.344 86.1499C129.367 85.3479 129.344 84.5892 129.419 83.838C129.46 83.3806 129.293 83.1772 128.902 82.9852C124.596 80.8767 120.296 78.7556 116.001 76.6219C115.921 76.5824 115.836 76.5466 115.677 76.4751C115.72 77.2696 115.754 78 115.802 78.7342C115.813 78.8697 115.859 78.9998 115.937 79.1108C116.045 79.284 116.19 79.4312 116.361 79.5419C119.957 81.3781 123.557 83.2117 127.163 85.0429L129.344 86.1499Z" fill="url(#paint3_linear_4_2193)"/>
    <path d="M147.991 77.3128C147.949 77.2205 147.747 77.1622 147.615 77.1546C146.674 77.0956 145.732 77.0479 144.789 77.0115C144.292 76.9927 143.795 77.0115 143.27 77.0115C143.27 77.0454 143.259 77.1 143.257 77.1546C143.18 78.4725 143.098 79.7903 143.032 81.1081C143.024 81.4909 142.922 81.8658 142.736 82.2C142.601 82.4297 142.486 82.6726 142.361 82.9041C142.833 83.2807 143.167 83.2618 143.537 82.8232L143.734 82.5954C145.109 80.9638 146.484 79.3359 147.859 77.7119C147.938 77.597 148.03 77.4069 147.991 77.3128Z" fill="url(#paint4_linear_4_2193)"/>
    <path d="M121.391 86.7182H127.409C127.488 86.7182 127.563 86.6869 127.619 86.6311C127.674 86.5753 127.705 86.4996 127.705 86.4208C127.705 86.3247 127.705 86.2325 127.705 86.1365C127.716 86.0706 127.703 86.0032 127.668 85.946C127.634 85.8889 127.581 85.8457 127.518 85.824C126.997 85.5717 126.485 85.3006 125.969 85.037L124.36 84.22C123.595 85.4832 122.655 86.2909 121.089 85.583V86.4226C121.089 86.4621 121.097 86.5012 121.112 86.5375C121.128 86.5739 121.15 86.6068 121.178 86.6343C121.206 86.6619 121.24 86.6835 121.276 86.6979C121.313 86.7123 121.352 86.7192 121.391 86.7182Z" fill="url(#paint5_linear_4_2193)"/>
    <path d="M114.968 76.1077C113.899 75.5693 112.832 75.0196 111.765 74.4755C111.5 74.3418 111.243 74.2138 110.938 74.0594C110.938 74.5527 110.926 75.0008 110.938 75.4413C110.938 75.5852 110.98 75.7258 111.059 75.8459C111.138 75.966 111.25 76.0603 111.382 76.1172C112.187 76.5294 112.978 76.9719 113.775 77.3992L115.163 78.141C115.163 77.5461 115.163 76.9907 115.163 76.4353C115.171 76.3667 115.157 76.2972 115.121 76.2379C115.086 76.1786 115.032 76.1328 114.968 76.1077Z" fill="url(#paint6_linear_4_2193)"/>
    <path d="M122.64 85.2105C123.219 84.9846 123.578 84.5233 123.863 83.9604L119.87 81.9253C119.893 82.1286 119.904 82.2849 119.928 82.4411C120.063 83.3071 120.331 84.1185 120.956 84.7605C121.421 85.2406 121.98 85.4665 122.64 85.2105Z" fill="url(#paint7_linear_4_2193)"/>
    <path d="M142.691 77.501C142.702 77.3128 142.691 77.1245 142.691 76.9061C140.881 76.8233 139.09 76.7066 137.3 76.6727C136.187 76.6501 135.278 77.1848 134.575 78.0282C133.275 79.5851 132.002 81.1646 130.71 82.7347C130.549 82.9201 130.359 83.0778 130.147 83.2016C130.088 83.2281 130.039 83.2718 130.006 83.3269C129.972 83.382 129.956 83.4459 129.96 83.5104C129.946 84.3067 129.924 85.1031 129.901 85.8994C129.886 86.4642 130.031 86.6412 130.593 86.7052C130.665 86.7052 130.736 86.7202 130.807 86.724C133.315 86.7974 135.82 86.8614 138.325 86.9518C139.04 86.9782 139.546 86.7146 139.893 86.0952C140.713 84.6381 141.543 83.1884 142.363 81.7332C142.42 81.6295 142.454 81.5144 142.462 81.3962C142.542 80.0959 142.619 78.7975 142.691 77.501ZM139.655 79.7018C139.445 80.4925 139.201 81.2757 138.97 82.0626L138.595 83.324C138.449 83.8285 138.247 83.9942 137.718 83.9773C136.358 83.9346 134.995 83.8831 133.63 83.8229C133.097 83.7984 132.928 83.5706 133.067 83.0491C133.391 81.8763 133.733 80.7071 134.082 79.5399C134.207 79.1182 134.511 78.9205 134.985 78.9055C136.169 78.8716 138.451 79.0109 139.149 79.0486C139.608 79.0711 139.771 79.2594 139.655 79.7018Z" fill="url(#paint8_linear_4_2193)"/>
    <path d="M130.467 87.3413H118.342C117.975 87.3413 117.678 87.6397 117.678 88.0078V88.0096C117.678 88.3777 117.975 88.6761 118.342 88.6761H130.467C130.834 88.6761 131.131 88.3777 131.131 88.0096V88.0078C131.131 87.6397 130.834 87.3413 130.467 87.3413Z" fill="url(#paint9_linear_4_2193)"/>
    <path d="M126.543 89.207H122.265C122.089 89.207 121.921 89.2772 121.796 89.4022C121.672 89.5272 121.602 89.6967 121.602 89.8735C121.602 90.0502 121.672 90.2197 121.796 90.3447C121.921 90.4697 122.089 90.5399 122.265 90.5399H126.543C126.719 90.5399 126.888 90.4697 127.012 90.3447C127.137 90.2197 127.207 90.0502 127.207 89.8735C127.207 89.6967 127.137 89.5272 127.012 89.4022C126.888 89.2772 126.719 89.207 126.543 89.207Z" fill="url(#paint10_linear_4_2193)"/>
  </g>
  <defs>
    <filter id="filter0_b_4_2193" x="-4" y="-4" width="164" height="164" filterUnits="userSpaceOnUse" color-interpolation-filters="sRGB">
      <feFlood flood-opacity="0" result="BackgroundImageFix"/>
      <feGaussianBlur in="BackgroundImageFix" stdDeviation="2"/>
      <feComposite in2="SourceAlpha" operator="in" result="effect1_backgroundBlur_4_2193"/>
      <feBlend mode="normal" in="SourceGraphic" in2="effect1_backgroundBlur_4_2193" result="shape"/>
    </filter>
    <linearGradient id="paint0_linear_4_2193" x1="51.1959" y1="90.9167" x2="117.917" y2="54.2882" gradientUnits="userSpaceOnUse">
      <stop stop-color="#0E7FD4"/>
      <stop offset="1" stop-color="#00B3BF"/>
    </linearGradient>
    <linearGradient id="paint1_linear_4_2193" x1="119.342" y1="82.9083" x2="145.467" y2="67.7083" gradientUnits="userSpaceOnUse">
      <stop stop-color="#0E7FD4"/>
      <stop offset="1" stop-color="#00B3BF"/>
    </linearGradient>
    <linearGradient id="paint2_linear_4_2193" x1="118.941" y1="75.9201" x2="131.715" y2="59.6604" gradientUnits="userSpaceOnUse">
      <stop stop-color="#0E7FD4"/>
      <stop offset="1" stop-color="#00B3BF"/>
    </linearGradient>
    <linearGradient id="paint3_linear_4_2193" x1="119.057" y1="82.5622" x2="126.571" y2="76.349" gradientUnits="userSpaceOnUse">
      <stop stop-color="#0E7FD4"/>
      <stop offset="1" stop-color="#00B3BF"/>
    </linearGradient>
    <linearGradient id="paint4_linear_4_2193" x1="143.747" y1="80.8835" x2="147.792" y2="78.7318" gradientUnits="userSpaceOnUse">
      <stop stop-color="#0E7FD4"/>
      <stop offset="1" stop-color="#00B3BF"/>
    </linearGradient>
    <linearGradient id="paint5_linear_4_2193" x1="122.717" y1="85.7918" x2="124.521" y2="83.0107" gradientUnits="userSpaceOnUse">
      <stop stop-color="#0E7FD4"/>
      <stop offset="1" stop-color="#00B3BF"/>
    </linearGradient>
    <linearGradient id="paint6_linear_4_2193" x1="111.973" y1="76.6274" x2="114.828" y2="74.9047" gradientUnits="userSpaceOnUse">
      <stop stop-color="#0E7FD4"/>
      <stop offset="1" stop-color="#00B3BF"/>
    </linearGradient>
    <linearGradient id="paint7_linear_4_2193" x1="120.852" y1="84.0594" x2="123.353" y2="82.3466" gradientUnits="userSpaceOnUse">
      <stop stop-color="#0E7FD4"/>
      <stop offset="1" stop-color="#00B3BF"/>
    </linearGradient>
    <linearGradient id="paint8_linear_4_2193" x1="133.046" y1="83.1408" x2="140.771" y2="77.5474" gradientUnits="userSpaceOnUse">
      <stop stop-color="#0E7FD4"/>
      <stop offset="1" stop-color="#00B3BF"/>
    </linearGradient>
    <linearGradient id="paint9_linear_4_2193" x1="120.985" y1="88.1811" x2="121.335" y2="86.1296" gradientUnits="userSpaceOnUse">
      <stop stop-color="#0E7FD4"/>
      <stop offset="1" stop-color="#00B3BF"/>
    </linearGradient>
    <linearGradient id="paint10_linear_4_2193" x1="122.98" y1="90.0456" x2="123.718" y2="88.2392" gradientUnits="userSpaceOnUse">
      <stop stop-color="#0E7FD4"/>
      <stop offset="1" stop-color="#00B3BF"/>
    </linearGradient>
  </defs>
</svg>