<svg width="48" height="48" viewBox="0 0 48 48" fill="none" xmlns="http://www.w3.org/2000/svg">
<g clip-path="url(#clip0_12_241)">
<g filter="url(#filter0_b_12_241)">
<circle cx="24" cy="24" r="24" fill="#F9F9F9"/>
</g>
<path d="M42 24C42 33.9411 33.9411 42 24 42C14.0589 42 6 33.9411 6 24C6 14.0589 14.0589 6 24 6C33.9411 6 42 14.0589 42 24ZM9.44343 24C9.44343 32.0394 15.9606 38.5566 24 38.5566C32.0394 38.5566 38.5566 32.0394 38.5566 24C38.5566 15.9606 32.0394 9.44343 24 9.44343C15.9606 9.44343 9.44343 15.9606 9.44343 24Z" fill="url(#paint0_linear_12_241)"/>
<g clip-path="url(#clip1_12_241)">
<mask id="mask0_12_241" style="mask-type:alpha" maskUnits="userSpaceOnUse" x="13" y="0" width="100" height="100">
<rect x="13" width="100" height="100" fill="url(#paint1_linear_12_241)"/>
</mask>
<g mask="url(#mask0_12_241)">
<path d="M24.4447 26.2092C24.6901 26.3258 24.8062 26.3059 24.9875 26.1041C25.6563 25.3369 26.323 24.5687 27.0059 23.8058C27.2471 23.5172 27.5565 23.2891 27.908 23.1408C28.2595 22.9924 28.6427 22.9282 29.0253 22.9535L30.3054 23.0134L32.9491 23.1374L34.0489 23.1868L34.0576 23.1584L33.9751 23.1195L30.959 21.83C27.9313 20.5325 24.9032 19.2364 21.8748 17.9417C21.3356 17.6925 20.7723 17.4953 20.193 17.3532C19.643 17.2495 19.0846 17.1921 18.5243 17.1819C17.2616 17.1241 16 17.061 14.7373 17.0022C14.5582 16.9962 14.3789 17.004 14.201 17.0253C14.0621 17.0334 13.9304 17.0878 13.8284 17.1795C13.7264 17.2711 13.6605 17.3942 13.6419 17.5276C13.5333 18.0195 13.4247 18.5102 13.3162 18.9989C13.2174 19.4308 13.1218 19.8554 13.0274 20.281C12.9514 20.6278 13.0274 20.7907 13.3357 20.9357L15.6059 22.0087L24.4447 26.2092Z" fill="url(#paint2_linear_12_241)"/>
<path d="M24.1993 28.5494C24.2123 28.1017 24.1993 27.6782 24.2427 27.2589C24.2666 27.0035 24.17 26.89 23.9431 26.7828C21.4503 25.6058 18.9607 24.4218 16.4744 23.2308C16.4278 23.2087 16.3789 23.1887 16.2866 23.1488C16.3116 23.5923 16.3311 24 16.3594 24.4099C16.3654 24.4855 16.3924 24.5581 16.4375 24.6201C16.5 24.7168 16.5838 24.799 16.6829 24.8607C18.7646 25.8857 20.8491 26.9093 22.9366 27.9315L24.1993 28.5494Z" fill="url(#paint3_linear_12_241)"/>
<path d="M34.9947 23.6164C34.9708 23.5649 34.8535 23.5323 34.7775 23.5281C34.2325 23.4952 33.6871 23.4686 33.1413 23.4483C32.8536 23.4378 32.5659 23.4483 32.2619 23.4483C32.2619 23.4672 32.2554 23.4977 32.2543 23.5281C32.2098 24.2638 32.162 24.9994 32.124 25.735C32.1191 25.9487 32.0602 26.158 31.9525 26.3446C31.8743 26.4728 31.8081 26.6083 31.7354 26.7376C32.009 26.9478 32.2022 26.9373 32.4161 26.6924L32.5301 26.5653C33.3263 25.6545 34.1225 24.7458 34.9187 23.8392C34.9643 23.7751 35.0175 23.669 34.9947 23.6164Z" fill="url(#paint4_linear_12_241)"/>
<path d="M19.5947 28.8666H23.0788C23.1243 28.8666 23.1679 28.8491 23.2001 28.818C23.2322 28.7868 23.2503 28.7446 23.2503 28.7006C23.2503 28.647 23.2503 28.5955 23.2503 28.5419C23.2562 28.5051 23.2486 28.4675 23.2288 28.4356C23.2089 28.4037 23.1781 28.3795 23.1417 28.3674C22.8399 28.2266 22.5435 28.0753 22.2449 27.9281L21.3134 27.472C20.8704 28.1772 20.3265 28.628 19.4199 28.2329V28.7016C19.4199 28.7236 19.4245 28.7454 19.4333 28.7657C19.4421 28.786 19.4551 28.8044 19.4714 28.8198C19.4877 28.8352 19.507 28.8472 19.5282 28.8553C19.5493 28.8633 19.572 28.8672 19.5947 28.8666Z" fill="url(#paint5_linear_12_241)"/>
<path d="M15.8761 22.9437C15.2573 22.6431 14.6395 22.3363 14.0217 22.0325C13.8686 21.9579 13.7199 21.8865 13.5429 21.8003C13.5429 22.0756 13.5364 22.3257 13.5429 22.5717C13.5432 22.652 13.5676 22.7305 13.6134 22.7975C13.6591 22.8645 13.724 22.9172 13.8002 22.9489C14.266 23.1791 14.7242 23.426 15.1856 23.6646L15.989 24.0787C15.989 23.7466 15.989 23.4366 15.989 23.1265C15.9939 23.0882 15.9855 23.0495 15.965 23.0163C15.9446 22.9832 15.9133 22.9577 15.8761 22.9437Z" fill="url(#paint6_linear_12_241)"/>
<path d="M20.318 28.025C20.6534 27.8989 20.8608 27.6414 21.0258 27.3272L18.7144 26.1912C18.7274 26.3047 18.7339 26.3919 18.748 26.4791C18.8262 26.9625 18.9814 27.4155 19.343 27.7738C19.6122 28.0418 19.9358 28.1679 20.318 28.025Z" fill="url(#paint7_linear_12_241)"/>
<path d="M31.9266 23.7214C31.9331 23.6164 31.9266 23.5113 31.9266 23.3894C30.8789 23.3431 29.8421 23.278 28.8052 23.2591C28.1614 23.2464 27.6348 23.5449 27.2277 24.0157C26.4753 24.8848 25.7381 25.7665 24.99 26.643C24.8968 26.7464 24.7868 26.8345 24.6643 26.9036C24.6304 26.9184 24.6018 26.9427 24.5825 26.9735C24.5631 27.0043 24.5538 27.04 24.5557 27.0759C24.5481 27.5205 24.5351 27.965 24.5221 28.4095C24.5134 28.7248 24.597 28.8236 24.9227 28.8593C24.964 28.8593 25.0052 28.8677 25.0465 28.8698C26.4981 28.9108 27.9486 28.9465 29.3991 28.997C29.8128 29.0117 30.1059 28.8646 30.3068 28.5188C30.7812 27.7054 31.2622 26.8962 31.7366 26.0839C31.7697 26.026 31.7894 25.9618 31.7942 25.8958C31.8405 25.1699 31.8847 24.4452 31.9266 23.7214ZM30.1689 24.95C30.0473 25.3913 29.9061 25.8285 29.7726 26.2678L29.5554 26.9719C29.4708 27.2535 29.3535 27.346 29.0473 27.3366C28.2598 27.3127 27.4709 27.284 26.6805 27.2504C26.3721 27.2367 26.2744 27.1096 26.3548 26.8185C26.5426 26.1638 26.7402 25.5111 26.9421 24.8596C27.0149 24.6242 27.1908 24.5138 27.4654 24.5054C28.1505 24.4865 29.4718 24.5643 29.8757 24.5853C30.1417 24.5979 30.2362 24.703 30.1689 24.95Z" fill="url(#paint8_linear_12_241)"/>
<path d="M24.8499 29.2145H17.8297C17.6174 29.2145 17.4453 29.381 17.4453 29.5865V29.5875C17.4453 29.793 17.6174 29.9596 17.8297 29.9596H24.8499C25.0621 29.9596 25.2342 29.793 25.2342 29.5875V29.5865C25.2342 29.381 25.0621 29.2145 24.8499 29.2145Z" fill="url(#paint9_linear_12_241)"/>
<path d="M22.5776 30.256H20.1011C19.9992 30.256 19.9014 30.2952 19.8294 30.3649C19.7573 30.4347 19.7168 30.5293 19.7168 30.628C19.7168 30.7267 19.7573 30.8213 19.8294 30.8911C19.9014 30.9608 19.9992 31 20.1011 31H22.5776C22.6796 31 22.7773 30.9608 22.8494 30.8911C22.9215 30.8213 22.962 30.7267 22.962 30.628C22.962 30.5293 22.9215 30.4347 22.8494 30.3649C22.7773 30.2952 22.6796 30.256 22.5776 30.256Z" fill="url(#paint10_linear_12_241)"/>
</g>
</g>
</g>
<defs>
<filter id="filter0_b_12_241" x="-4" y="-4" width="56" height="56" filterUnits="userSpaceOnUse" color-interpolation-filters="sRGB">
<feFlood flood-opacity="0" result="BackgroundImageFix"/>
<feGaussianBlur in="BackgroundImageFix" stdDeviation="2"/>
<feComposite in2="SourceAlpha" operator="in" result="effect1_backgroundBlur_12_241"/>
<feBlend mode="normal" in="SourceGraphic" in2="effect1_backgroundBlur_12_241" result="shape"/>
</filter>
<linearGradient id="paint0_linear_12_241" x1="24" y1="6" x2="24" y2="42" gradientUnits="userSpaceOnUse">
<stop stop-color="#1E9DFC"/>
<stop offset="1" stop-color="#0066B3"/>
</linearGradient>
<linearGradient id="paint1_linear_12_241" x1="63" y1="0" x2="63" y2="100" gradientUnits="userSpaceOnUse">
<stop stop-color="#1E9DFC"/>
<stop offset="1" stop-color="#0066B3"/>
</linearGradient>
<linearGradient id="paint2_linear_12_241" x1="23.5288" y1="17.0002" x2="23.5288" y2="26.2807" gradientUnits="userSpaceOnUse">
<stop stop-color="#1E9DFC"/>
<stop offset="1" stop-color="#0066B3"/>
</linearGradient>
<linearGradient id="paint3_linear_12_241" x1="20.2664" y1="23.1488" x2="20.2664" y2="28.5494" gradientUnits="userSpaceOnUse">
<stop stop-color="#1E9DFC"/>
<stop offset="1" stop-color="#0066B3"/>
</linearGradient>
<linearGradient id="paint4_linear_12_241" x1="33.3677" y1="23.4436" x2="33.3677" y2="26.8863" gradientUnits="userSpaceOnUse">
<stop stop-color="#1E9DFC"/>
<stop offset="1" stop-color="#0066B3"/>
</linearGradient>
<linearGradient id="paint5_linear_12_241" x1="21.3361" y1="27.472" x2="21.3361" y2="28.8667" gradientUnits="userSpaceOnUse">
<stop stop-color="#1E9DFC"/>
<stop offset="1" stop-color="#0066B3"/>
</linearGradient>
<linearGradient id="paint6_linear_12_241" x1="14.7652" y1="21.8003" x2="14.7652" y2="24.0787" gradientUnits="userSpaceOnUse">
<stop stop-color="#1E9DFC"/>
<stop offset="1" stop-color="#0066B3"/>
</linearGradient>
<linearGradient id="paint7_linear_12_241" x1="19.8701" y1="26.1912" x2="19.8701" y2="28.0846" gradientUnits="userSpaceOnUse">
<stop stop-color="#1E9DFC"/>
<stop offset="1" stop-color="#0066B3"/>
</linearGradient>
<linearGradient id="paint8_linear_12_241" x1="28.2255" y1="23.2587" x2="28.2255" y2="28.998" gradientUnits="userSpaceOnUse">
<stop stop-color="#1E9DFC"/>
<stop offset="1" stop-color="#0066B3"/>
</linearGradient>
<linearGradient id="paint9_linear_12_241" x1="21.3398" y1="29.2145" x2="21.3398" y2="29.9596" gradientUnits="userSpaceOnUse">
<stop stop-color="#1E9DFC"/>
<stop offset="1" stop-color="#0066B3"/>
</linearGradient>
<linearGradient id="paint10_linear_12_241" x1="21.3394" y1="30.256" x2="21.3394" y2="31" gradientUnits="userSpaceOnUse">
<stop stop-color="#1E9DFC"/>
<stop offset="1" stop-color="#0066B3"/>
</linearGradient>
<clipPath id="clip0_12_241">
<rect width="48" height="48" fill="white"/>
</clipPath>
<clipPath id="clip1_12_241">
<rect width="22" height="14" fill="white" transform="translate(13 17)"/>
</clipPath>
</defs>
</svg>
